<?xml version="1.0" encoding="utf-8"?>
<!-- Generator: Adobe Illustrator 16.0.3, SVG Export Plug-In . SVG Version: 6.00 Build 0)  -->
<!DOCTYPE svg PUBLIC "-//W3C//DTD SVG 1.1//EN" "http://www.w3.org/Graphics/SVG/1.1/DTD/svg11.dtd">
<svg version="1.1" id="Layer_1" xmlns="http://www.w3.org/2000/svg" xmlns:xlink="http://www.w3.org/1999/xlink" x="0px" y="0px"
	 width="275.04px" height="280.82px" viewBox="0 0 275.04 280.82" enable-background="new 0 0 275.04 280.82" xml:space="preserve">
<path fill="#58C9EF" d="M107.774,74.784C118.534,54.154,140.121,40.07,165,40.07c34.34,0,61.861,26.875,64.389,60.684
	c0,0-52.889,7.066-119.514-24.809"/>
<path fill="#58C9EF" d="M205.1,54.594c0,0,23.164-8.23,38.012-21.327c0,0-2.484,22.721-22.236,38.815
	c0,0,16.209-2.991,34.314-14.593c0,0-10.486,22.426-26.879,37.161l-19.441,5.035l-15.396-38.129L205.1,54.594z"/>
<path fill="#58C9EF" d="M39,208.32c0,0,8.667-8.75,27.333-13.084C85,190.904,92,201.779,92,201.779S68.333,215.402,39,208.32z"/>
<path fill="#58C9EF" d="M7.291,115.57c0,0,12.709-11.75,42.709-10s0,22,0,22S25.082,127.82,7.291,115.57z"/>
<path fill="#353535" d="M123,273.57c0,0,106.668,12.5,106.668-170.675c0,0-119.168,12.675-210.668-95.825
	c0,0-40.25,71.25,28.5,122.25c0,0-22.919-0.25-40.209-11.75c0,0-5.791,69.75,72.459,91.25c0,0-18.5,6.75-40.75,1.5
	C39,210.32,54.75,269.32,123,273.57z"/>
<path fill="#B7B7B7" d="M127.333,273.57c0,0,75.02,7.957,98.01-101.5c0,0,22.322,10.5,35.988,2.834
	C261.332,174.904,244,273.57,127.333,273.57z"/>
<path fill="#DEDDDD" d="M129.333,273.57c0,0,113.008,0.176,138.512-56.721l-7.18-17.613l-5.029-1.195
	C255.637,198.041,229.332,273.57,129.333,273.57z"/>
<path fill="#EDEDED" d="M260.666,199.236c0,0-1,7.5-5.832,13.166c0,0,6.506,5.668,13.012,4.447L260.666,199.236z"/>
<path fill="#171617" d="M221.678,186.736c0,0,11.959,5.504,23.654,5.629l-1.664,4.205c0,0-10.539,0.402-23.203-5.359
	C220.465,191.211,221.115,189.031,221.678,186.736z"/>
<path fill="#171617" d="M219.428,194.318c0,0,11.219,5.488,22.914,5.611l-1.936,4.229c0,0-9.734,0.344-22.398-5.418
	C218.008,198.74,218.707,196.701,219.428,194.318z"/>
</svg>
